<?xml version="1.0" standalone="no"?>
<!DOCTYPE svg PUBLIC "-//W3C//DTD SVG 20010904//EN"
 "http://www.w3.org/TR/2001/REC-SVG-20010904/DTD/svg10.dtd">
<svg version="1.0" xmlns="http://www.w3.org/2000/svg"
 width="880.000000pt" height="880.000000pt" viewBox="0 0 880.000000 880.000000"
 preserveAspectRatio="xMidYMid meet">
<metadata>
Created by potrace 1.14, written by Peter Selinger 2001-2017
</metadata>
<g transform="translate(0.000000,880.000000) scale(0.100000,-0.100000)"
fill="#000000" stroke="none">
<path d="M163 7579 c-10 -4 -21 -5 -25 -2 -12 6 -61 -23 -89 -54 -47 -52 -51
-73 -47 -320 l3 -230 27 -40 c16 -25 44 -49 70 -61 40 -19 67 -21 413 -25 204
-3 390 -8 415 -11 25 -3 68 -7 95 -10 104 -10 224 -25 255 -33 8 -2 28 -4 43
-5 15 0 30 -5 33 -10 3 -4 9 -6 14 -3 7 4 59 -4 130 -20 14 -3 36 -8 50 -11
22 -4 65 -13 95 -20 6 -1 39 -10 75 -19 36 -8 73 -18 83 -20 9 -2 21 -6 25 -9
5 -3 22 -7 38 -10 31 -6 269 -83 344 -111 298 -113 616 -265 808 -386 26 -16
55 -32 65 -35 9 -4 17 -10 17 -15 0 -5 5 -9 10 -9 12 0 269 -171 293 -194 8
-9 19 -16 22 -16 4 0 28 -17 53 -37 26 -21 51 -41 57 -45 5 -4 29 -23 51 -42
23 -20 44 -36 47 -36 3 0 18 -12 34 -27 16 -16 58 -53 93 -83 35 -30 75 -65
88 -77 l24 -22 -86 -108 c-47 -59 -90 -112 -94 -118 -4 -5 -28 -39 -52 -75
-25 -36 -48 -67 -51 -70 -10 -8 -129 -188 -136 -205 -3 -9 -9 -15 -14 -13 -7
3 -108 91 -159 139 -9 9 -55 47 -101 85 -46 38 -90 75 -97 81 -7 7 -17 13 -20
13 -4 0 -19 11 -33 24 -29 27 -323 226 -334 226 -4 0 -19 8 -33 19 -60 42
-282 159 -422 221 -158 71 -172 77 -255 105 -44 16 -84 32 -89 37 -6 4 -19 8
-29 8 -10 0 -33 7 -50 15 -18 8 -50 19 -72 24 -22 6 -101 27 -175 47 -74 19
-148 38 -165 40 -16 3 -64 12 -105 21 -41 8 -90 17 -109 19 -19 2 -50 6 -70
10 -46 8 -63 9 -281 31 -25 2 -191 6 -369 7 -308 3 -381 -2 -381 -26 0 -4 -5
-8 -10 -8 -18 0 -59 -53 -71 -90 -7 -22 -9 -117 -7 -261 3 -221 3 -226 28
-262 13 -20 43 -46 65 -59 38 -22 50 -22 290 -24 233 -1 461 -10 516 -19 13
-2 47 -6 74 -10 28 -3 75 -10 105 -15 30 -5 72 -12 93 -16 154 -23 508 -129
682 -203 76 -32 286 -135 346 -169 186 -105 429 -272 544 -374 11 -9 42 -37
70 -60 27 -24 98 -90 156 -148 80 -79 104 -109 98 -120 -17 -29 -129 -299
-129 -310 0 -7 -6 -24 -14 -38 -8 -15 -24 -56 -36 -92 -12 -36 -25 -72 -28
-80 -3 -8 -6 -19 -8 -25 -1 -5 -13 -44 -27 -85 -13 -41 -28 -90 -32 -107 -6
-29 -25 -47 -25 -25 0 5 -8 17 -18 28 -10 10 -29 35 -42 54 -14 19 -32 42 -40
51 -8 8 -40 44 -70 80 -64 75 -205 215 -280 279 -29 25 -57 50 -64 55 -6 6
-34 27 -61 47 -28 21 -55 42 -61 47 -17 14 -202 134 -259 167 -45 27 -222 117
-235 120 -3 0 -18 7 -35 14 -16 7 -32 14 -35 15 -3 1 -16 6 -30 12 -86 36
-266 94 -340 110 -35 7 -43 9 -60 16 -8 3 -31 8 -50 11 -19 3 -44 7 -55 9 -57
12 -167 28 -217 31 -31 2 -60 6 -65 8 -18 11 -581 9 -621 -1 -51 -14 -107 -68
-122 -118 -8 -25 -10 -115 -8 -265 l3 -226 31 -39 c58 -73 73 -76 384 -79 262
-3 337 -6 398 -18 15 -3 43 -8 62 -10 61 -10 94 -16 125 -26 17 -5 41 -11 55
-14 77 -14 276 -93 401 -159 117 -62 149 -81 149 -89 0 -5 6 -8 13 -8 38 -1
295 -219 412 -351 95 -107 215 -268 215 -288 0 -5 3 -11 8 -13 12 -5 141 -250
147 -278 0 -3 13 -36 27 -75 31 -82 75 -227 82 -270 2 -16 5 -30 6 -30 2 0 4
-14 19 -100 18 -101 23 -209 25 -475 2 -267 4 -278 50 -328 44 -49 71 -56 224
-58 78 0 145 -4 148 -7 4 -4 14 -3 23 1 9 4 36 7 61 5 51 -2 130 15 130 28 0
5 6 9 14 9 7 0 26 19 42 43 32 48 31 34 38 517 4 272 9 377 21 459 3 20 7 61
10 91 5 56 9 91 19 145 3 17 8 46 11 65 3 19 13 71 21 115 9 44 18 94 21 110
2 17 16 75 29 130 14 55 27 108 29 118 13 60 116 381 125 391 11 11 131 -234
193 -394 39 -100 109 -310 108 -325 0 -2 6 -23 14 -45 8 -22 12 -40 10 -40 -3
0 0 -11 5 -26 6 -14 12 -39 15 -57 3 -18 11 -50 16 -72 6 -22 13 -53 15 -70 2
-16 6 -41 9 -55 9 -42 17 -101 31 -220 11 -102 15 -213 18 -488 l3 -302 29
-42 c56 -79 68 -83 324 -84 221 -2 226 -2 270 22 56 31 92 85 97 144 1 25 5
191 7 370 2 179 7 335 10 347 2 12 7 48 11 80 3 32 10 83 15 113 5 30 11 69
14 85 3 17 7 41 10 55 3 14 8 37 11 53 3 15 7 39 10 55 3 15 10 41 15 57 20
65 42 145 44 157 5 30 74 229 101 293 47 108 55 129 55 140 0 8 3 15 8 17 4 2
29 47 55 102 76 156 68 155 112 19 20 -65 40 -125 43 -133 6 -19 6 -16 37
-135 35 -130 53 -206 60 -247 3 -18 8 -41 11 -51 3 -11 7 -29 9 -40 1 -12 7
-49 13 -82 23 -122 51 -329 58 -425 12 -151 16 -269 18 -545 3 -334 6 -353 59
-403 45 -43 89 -49 322 -48 201 2 223 3 250 21 44 29 73 63 84 98 6 18 13 158
15 312 3 154 7 298 10 320 6 48 17 112 23 140 2 11 6 34 9 50 12 73 84 305
109 355 7 14 30 61 50 105 94 204 228 389 415 575 164 163 323 279 505 370 28
14 52 28 55 32 3 3 19 10 35 14 17 4 35 10 40 14 33 23 264 100 349 116 12 2
32 6 46 9 147 30 237 37 530 39 293 3 313 6 363 65 15 18 30 45 35 59 4 15 7
128 7 252 0 202 -2 229 -19 260 -23 42 -38 55 -92 80 -38 18 -61 19 -350 15
-170 -2 -325 -6 -344 -9 -19 -3 -57 -7 -85 -10 -94 -9 -350 -64 -435 -92 -8
-3 -15 -5 -15 -4 0 1 -25 -8 -55 -20 -30 -12 -57 -22 -60 -22 -41 -4 -329
-135 -435 -198 -27 -16 -57 -33 -65 -36 -8 -4 -36 -22 -63 -41 -26 -18 -50
-33 -53 -33 -3 0 -19 -10 -34 -22 -15 -13 -37 -30 -50 -38 -173 -115 -420
-357 -578 -566 l-70 -92 -22 77 c-34 117 -100 311 -121 358 -10 24 -19 47 -19
53 0 6 -4 18 -9 28 -5 9 -23 53 -41 97 -18 44 -44 104 -57 133 -16 38 -20 58
-14 70 19 34 280 278 383 357 7 6 34 27 60 48 25 20 49 37 53 37 3 0 14 7 22
16 47 46 428 277 480 290 12 4 23 10 23 15 0 5 4 9 9 9 5 0 47 17 93 39 128
60 405 163 433 161 3 0 22 7 42 15 36 14 146 43 188 49 11 2 29 6 40 9 11 3
31 8 45 11 37 6 102 18 125 23 11 2 38 6 60 8 61 8 100 13 100 15 0 1 20 3 45
5 159 12 286 17 515 19 276 2 296 5 343 55 45 47 47 57 50 291 2 141 0 238 -7
261 -14 45 -66 97 -114 114 -38 13 -630 14 -752 1 -33 -4 -82 -9 -110 -12 -27
-3 -66 -7 -85 -9 -37 -4 -99 -13 -140 -21 -14 -2 -38 -7 -55 -9 -16 -3 -41 -8
-55 -10 -14 -3 -38 -8 -55 -11 -44 -8 -286 -66 -315 -76 -8 -3 -55 -17 -105
-32 -96 -30 -238 -79 -295 -104 -19 -9 -41 -17 -47 -18 -22 -4 -73 -29 -73
-35 0 -3 -6 -6 -13 -6 -16 0 -270 -123 -362 -175 -38 -22 -86 -49 -105 -60
-76 -43 -230 -146 -335 -223 -109 -79 -126 -93 -168 -129 -12 -10 -38 -30 -57
-45 -18 -14 -46 -37 -60 -51 -71 -67 -134 -120 -142 -120 -5 0 -7 -4 -4 -8 2
-4 -3 -13 -13 -19 -16 -10 -28 3 -99 110 -106 162 -148 220 -254 354 -99 128
-99 125 -26 186 24 19 57 48 73 63 17 14 62 52 100 83 39 31 76 62 83 68 22
21 253 187 327 235 107 69 158 101 180 114 11 6 65 37 120 69 281 161 728 351
1000 426 39 11 77 22 85 26 8 3 17 7 20 8 7 2 60 14 85 20 11 2 76 17 145 33
69 16 132 30 140 30 8 1 56 10 106 20 51 10 101 18 113 17 11 -1 21 1 21 4 0
3 10 6 23 7 12 0 49 4 81 8 33 4 80 9 105 12 25 2 71 7 101 10 30 3 221 8 424
11 385 5 404 7 455 52 55 48 59 70 61 314 1 209 -1 230 -20 266 -23 47 -71 85
-120 98 -75 19 -771 4 -980 -21 -25 -3 -67 -8 -95 -11 -53 -5 -123 -14 -165
-21 -14 -2 -41 -7 -60 -10 -73 -11 -244 -42 -265 -48 -10 -3 -76 -16 -105 -21
-8 -2 -35 -8 -60 -15 -25 -7 -53 -14 -62 -16 -10 -2 -26 -6 -35 -8 -216 -49
-731 -229 -895 -312 -27 -13 -51 -25 -55 -25 -14 -1 -444 -220 -453 -230 -7
-8 -85 -54 -137 -80 -24 -12 -43 -25 -43 -30 0 -5 -5 -9 -10 -9 -9 0 -194
-117 -225 -143 -5 -4 -55 -40 -110 -80 -89 -63 -187 -138 -264 -202 -30 -24
-184 -157 -191 -165 -3 -3 -21 -20 -41 -37 l-35 -33 -35 33 c-35 33 -176 156
-194 170 -5 4 -26 21 -45 38 -61 54 -348 269 -359 269 -5 0 -11 4 -13 9 -1 5
-59 45 -128 89 -69 45 -130 86 -137 91 -7 6 -16 11 -20 11 -5 0 -24 11 -43 23
-101 69 -405 226 -615 319 -234 104 -617 239 -805 284 -8 2 -40 10 -70 18 -30
8 -66 17 -80 19 -14 3 -63 14 -110 25 -47 11 -105 23 -130 27 -25 4 -54 9 -65
11 -54 11 -82 16 -105 19 -14 2 -41 7 -60 10 -19 4 -57 8 -85 10 -27 2 -50 5
-50 5 0 3 -49 9 -115 15 -36 3 -81 7 -100 10 -144 16 -810 27 -847 14z m4287
-2686 c30 -42 77 -109 104 -147 27 -39 53 -72 58 -74 4 -2 8 -7 8 -12 0 -8 61
-105 80 -127 5 -7 10 -14 10 -17 0 -2 23 -41 50 -86 55 -87 56 -99 16 -148
-35 -43 -179 -273 -208 -332 -7 -14 -15 -27 -18 -30 -3 -3 -12 -18 -20 -35 -8
-16 -21 -38 -29 -47 -8 -10 -11 -18 -8 -18 4 0 -2 -15 -13 -32 -11 -18 -23
-40 -26 -49 -3 -9 -20 -47 -39 -85 l-33 -69 -71 145 c-39 80 -89 177 -111 215
-22 39 -46 81 -53 95 -6 14 -15 30 -20 35 -4 6 -45 68 -92 139 -72 111 -83
132 -73 150 15 30 131 220 138 226 3 3 27 38 54 79 27 41 53 79 58 85 5 6 30
40 56 76 26 36 51 70 57 76 5 7 19 24 29 38 10 14 24 26 30 25 6 0 36 -34 66
-76z"/>
<path d="M697 2804 c-1 -1 -28 -4 -60 -8 -74 -7 -190 -46 -258 -87 -190 -111
-312 -279 -366 -503 -10 -42 -12 -223 -2 -271 16 -84 17 -88 38 -141 68 -174
206 -325 362 -397 50 -23 87 -38 99 -42 7 -2 60 -14 90 -21 67 -15 214 -10
298 11 12 3 31 7 43 10 44 9 186 86 240 128 238 190 337 503 249 787 -63 200
-205 368 -385 455 -61 29 -72 33 -135 53 -42 13 -204 33 -213 26z"/>
<path d="M7953 2793 c-143 -27 -246 -75 -367 -173 -83 -68 -195 -231 -221
-325 -5 -16 -9 -33 -10 -37 -2 -5 -3 -9 -5 -10 -10 -14 -26 -152 -24 -213 11
-313 216 -578 527 -680 128 -41 340 -38 450 8 20 9 38 16 40 16 7 -2 70 30
117 60 130 82 237 214 293 362 18 47 20 56 37 139 17 88 5 263 -24 345 -2 6
-4 15 -6 20 -1 6 -7 19 -13 30 -6 11 -12 22 -12 25 0 3 -16 34 -35 70 -43 79
-181 221 -262 269 -64 37 -157 77 -203 86 -99 20 -201 23 -282 8z"/>
</g>
</svg>
