<svg fill="none" xmlns="http://www.w3.org/2000/svg" width="298" height="55"><path d="M119.188 9.791h8.94V42h-8.378V22.414h-.045l-5.525 10.287h-6.447L102.23 22.46V42h-8.288V9.791h9.007l8.064 15.049h.045l8.13-15.049zm29.502 8.378h8.131V32.79c0 2.98-.995 5.353-2.987 7.12-1.992 1.767-4.889 2.65-8.692 2.65-3.804 0-6.694-.89-8.67-2.672-1.977-1.782-2.965-4.148-2.965-7.098V18.169h8.153v13.813c0 3.19 1.146 4.785 3.437 4.785 2.396 0 3.593-1.595 3.593-4.785V18.17zm14.027-9.749h8.131v25.247c0 1.692.846 2.538 2.538 2.538h1.055V42h-2.627c-6.08 0-9.112-2.748-9.097-8.243V8.42zm14.049 15.589v-5.84h4.582v-7.075h8.153v7.075h8.198v5.84h-8.198v10.22c0 .793.255 1.415.764 1.864.509.449 1.145.674 1.909.674 1.198 0 2.695-.54 4.492-1.618l2.898 5.189c-2.816 1.467-5.728 2.209-8.738 2.224-2.98 0-5.308-.682-6.985-2.044-1.662-1.378-2.493-3.242-2.493-5.593V24.009h-4.582zM203.572 42V18.169h8.131V42h-8.131zm0-27.605V8.421h8.131v5.975h-8.131z" fill="#004079"/><path d="M226.288 42.209H218V10h9.007l8.894 18.957V10h8.266v32.209h-9.097l-8.782-18.912v18.912zm30.558-9.883v.404c0 1.782.419 3.025 1.258 3.729.853.704 2.058 1.056 3.616 1.056 2.455 0 5.113-.794 7.973-2.381l2.516 4.582c-3.249 2.021-6.836 3.04-10.759 3.054-4.178 0-7.345-.883-9.501-2.65-2.156-1.767-3.234-4.185-3.234-7.255v-5.323c0-2.815 1.063-5.136 3.189-6.963 2.127-1.827 5.017-2.74 8.67-2.74 3.684 0 6.589.913 8.715 2.74 2.126 1.812 3.19 4.133 3.19 6.963v4.784h-15.633zm0-4.065h7.502v-.315c0-3.22-1.273-4.829-3.819-4.829-2.455 0-3.683 1.655-3.683 4.964v.18zm18.316-4.043v-5.84h4.582v-7.075h8.154v7.075h8.198v5.84h-8.198v10.22c0 .793.254 1.414.763 1.864.509.449 1.146.674 1.909.674 1.198 0 2.696-.54 4.493-1.618l2.897 5.189c-2.815 1.467-5.728 2.209-8.737 2.224-2.98 0-5.309-.682-6.986-2.044-1.662-1.378-2.493-3.242-2.493-5.593V24.218h-4.582z" fill="#49B9E0"/><path d="M69.681 54.071c-3.485 0-6.424-2.842-6.424-6.336 0-3.495 2.94-6.442 6.424-6.442 3.485 0 6.319 2.947 6.319 6.442 0 3.494-2.834 6.336-6.319 6.336zm4.547-22.201h-3.16c-9.596 0-17.587 8.013-17.587 17.637l-.236 3.062c0 .875-.78 1.502-1.652 1.502l-2.929-.3c-.873 0-.901-.477-.901-1.352l-.526-2.912c0-13.124 10.744-23.973 23.831-23.973h3.16c.872 0 1.58.709 1.58 1.584v3.168c0 .875-.708 1.584-1.58 1.584z" fill="#004076"/><path d="M74.42 19.01h-3.16c-16.576 0-30.331 13.686-30.331 30.309l-.526 3.168c0 .875-.075 1.584-.947 1.584h-3.16c-.872 0-1.58-.709-1.58-1.584v-3.168c0-20.123 16.478-36.646 36.545-36.646h3.16c.872 0 1.579.71 1.579 1.584v3.168c0 .875-.707 1.584-1.58 1.584z" fill="#004076"/><path d="M71.26 0h3.16C75.293 0 76 .71 76 1.584v3.168c0 .875-.707 1.584-1.58 1.584h-3.16c-23.555 0-42.862 19.36-42.862 42.983v3.168c0 .875-.707 1.584-1.58 1.584h-3.16c-.872 0-.903-.709-.903-1.584l-.6-3.523C22.154 21.843 44.214 0 71.26 0z" fill="#004076"/><path d="M6.266 54.071c3.456 0 6.37-2.842 6.37-6.336 0-3.495-2.914-6.442-6.37-6.442S0 44.24 0 47.735c0 3.494 2.81 6.336 6.266 6.336zM1.567 31.682H4.7c9.516 0 17.44 8.013 17.44 17.637v3.168c0 .875.701 1.584 1.567 1.584h3.133c.865 0 1.566-.709 1.566-1.584v-3.168c0-13.124-10.729-23.973-23.706-23.973H1.567C.7 25.346 0 26.055 0 26.93v3.168c0 .875.701 1.584 1.567 1.584z" fill="#49B9E0"/><path d="M1.567 19.01H4.7c16.438 0 29.972 13.686 29.972 30.309v3.168c0 .875.701 1.584 1.567 1.584h3.133c.865 0 1.566-.709 1.566-1.584v-3.168c0-20.123-16.34-36.646-36.238-36.646H1.567C.7 12.673 0 13.383 0 14.257v3.168c0 .875.701 1.584 1.567 1.584z" fill="#49B9E0"/><path d="M4.7 0H1.567C.7 0 0 .71 0 1.584v3.168c0 .875.701 1.584 1.567 1.584H4.7c23.359 0 42.504 19.36 42.504 42.983v3.168c0 .875.702 1.584 1.567 1.584h3.133c.865 0 1.566-.709 1.566-1.584v-3.168C53.47 22.197 31.52 0 4.7 0z" fill="#49B9E0"/></svg>