<svg xmlns="http://www.w3.org/2000/svg" fill="none" viewBox="0 0 76 55" width="55" height="41"><path fill="#004076" d="M69.681 54.071c-3.485 0-6.424-2.842-6.424-6.336 0-3.495 2.94-6.442 6.424-6.442 3.485 0 6.319 2.947 6.319 6.442 0 3.494-2.834 6.336-6.319 6.336zm4.547-22.201h-3.16c-9.596 0-17.587 8.013-17.587 17.637l-.236 3.062c0 .875-.78 1.502-1.652 1.502l-2.929-.3c-.873 0-.901-.477-.901-1.352l-.526-2.912c0-13.124 10.744-23.973 23.831-23.973h3.16c.872 0 1.58.709 1.58 1.584v3.168c0 .875-.708 1.584-1.58 1.584z"/><path fill="#004076" d="M74.42 19.01h-3.16c-16.576 0-30.331 13.686-30.331 30.309l-.526 3.168c0 .875-.075 1.584-.947 1.584h-3.16c-.872 0-1.58-.709-1.58-1.584v-3.168c0-20.123 16.478-36.646 36.545-36.646h3.16c.872 0 1.579.71 1.579 1.584v3.168c0 .875-.707 1.584-1.58 1.584z"/><path fill="#004076" d="M71.26 0h3.16C75.293 0 76 .71 76 1.584v3.168c0 .875-.707 1.584-1.58 1.584h-3.16c-23.555 0-42.862 19.36-42.862 42.983v3.168c0 .875-.707 1.584-1.58 1.584h-3.16c-.872 0-.903-.709-.903-1.584l-.6-3.523C22.154 21.843 44.214 0 71.26 0z"/><path fill="#49B9E0" d="M6.266 54.071c3.456 0 6.37-2.842 6.37-6.336 0-3.495-2.914-6.442-6.37-6.442S0 44.24 0 47.735c0 3.494 2.81 6.336 6.266 6.336zM1.567 31.682H4.7c9.516 0 17.44 8.013 17.44 17.637v3.168c0 .875.701 1.584 1.567 1.584h3.133c.865 0 1.566-.709 1.566-1.584v-3.168c0-13.124-10.729-23.973-23.706-23.973H1.567C.7 25.346 0 26.055 0 26.93v3.168c0 .875.701 1.584 1.567 1.584z"/><path fill="#49B9E0" d="M1.567 19.01H4.7c16.438 0 29.972 13.686 29.972 30.309v3.168c0 .875.701 1.584 1.567 1.584h3.133c.865 0 1.566-.709 1.566-1.584v-3.168c0-20.123-16.34-36.646-36.238-36.646H1.567C.7 12.673 0 13.383 0 14.257v3.168c0 .875.701 1.584 1.567 1.584z"/><path fill="#49B9E0" d="M4.7 0H1.567C.7 0 0 .71 0 1.584v3.168c0 .875.701 1.584 1.567 1.584H4.7c23.359 0 42.504 19.36 42.504 42.983v3.168c0 .875.702 1.584 1.567 1.584h3.133c.865 0 1.566-.709 1.566-1.584v-3.168C53.47 22.197 31.52 0 4.7 0z"/></svg>